# Blender v2.91.0 OBJ File: 'crystal1.blend'
# www.blender.org
mtllib shard4.mtl
o Icosphere
v -0.389141 0.461253 -0.271557
v -0.643493 0.795199 -0.588704
v -0.669812 1.401491 -0.920934
v -0.377938 1.776203 -1.126265
v 0.095037 1.402877 -1.089606
v 0.275424 0.796584 -0.805845
v 0.014219 0.461252 -0.398455
v 0.251269 2.901579 1.215374
v 0.611660 3.274904 0.916533
v 0.399890 3.983562 0.696121
v -0.140887 4.216530 0.711201
v -0.537850 3.881197 0.714029
v -0.606754 3.274904 0.919361
v -0.247312 2.901579 1.215374
v -1.116128 2.901576 0.606958
v -0.711232 3.274903 0.846487
v -0.642329 3.881196 0.641155
v -0.824250 4.114163 0.147828
v -0.867547 3.881195 -0.274642
v -1.090521 3.274902 -0.274642
v -1.270199 2.901576 0.147828
v -0.941078 2.901577 -0.840249
v -1.051228 3.274902 -0.393373
v -0.828254 3.881196 -0.393373
v -0.399912 4.114164 -0.713346
v -0.102303 3.826621 -0.935775
v -0.171204 3.220327 -1.141107
v -0.537716 2.901577 -1.124010
v 0.400440 2.831206 -1.193324
v -0.072535 3.204532 -1.156666
v -0.003634 3.810825 -0.951334
v 0.511924 3.812212 -0.861091
v 0.692314 3.205918 -0.987993
v 1.271422 2.901577 0.144182
v 1.159935 3.276289 -0.188045
v 0.979545 3.882581 -0.061146
v 0.725193 4.216527 0.256001
v 0.503756 3.983562 0.622428
v 0.715524 3.274904 0.842841
v 1.117352 2.901577 0.603312
v 0.410306 4.080619 0.622428
v 0.631744 4.313583 0.256000
v 0.340254 4.546551 -0.061146
v -0.063105 4.546553 -0.188044
v -0.312393 4.546553 0.144182
v -0.130471 4.313587 0.637508
v -0.371124 0.400699 -0.153138
v 0.032235 0.400697 -0.280037
v 0.312393 0.293844 0.144182
v 0.130471 0.526810 0.637508
v -0.410307 0.759778 0.622428
v -0.631744 0.526814 0.256001
v 0.590504 0.891771 0.644701
v 0.193541 0.556438 0.641873
v 0.375463 0.323472 0.148547
v 0.772426 0.658805 0.151375
v 0.537850 0.959200 0.714029
v 0.606754 1.565493 0.919361
v 0.247312 1.938818 1.215374
v -0.251269 1.938818 1.215374
v -0.611660 1.565492 0.916533
v -0.399891 0.856834 0.696121
v 0.140887 0.623867 0.711201
v 0.642329 0.959200 0.641155
v 0.824250 0.726234 0.147828
v 0.867547 0.959201 -0.274642
v 1.090521 1.565495 -0.274642
v 1.270199 1.938820 0.147828
v 1.116128 1.938820 0.606958
v 0.711232 1.565494 0.846487
v 0.375463 0.323472 0.075090
v 0.095306 0.430325 -0.349129
v 0.356511 0.765657 -0.756519
v 0.815722 0.891773 -0.344553
v 0.772426 0.658805 0.077917
v -0.424799 0.430327 -0.185502
v -0.685419 0.556442 0.223637
v -0.939772 0.890388 -0.093510
v -0.679152 0.764273 -0.502649
v -0.503756 0.856835 0.622428
v -0.715525 1.565493 0.842840
v -1.117352 1.938820 0.603312
v -1.271422 1.938820 0.144182
v -1.159935 1.564108 -0.188045
v -0.979545 0.957816 -0.061146
v -0.725193 0.623870 0.256001
v -0.699094 0.831300 -0.562078
v -0.959714 0.957415 -0.152939
v -1.140104 1.563707 -0.279838
v -1.029005 1.937032 -0.723887
v -0.725413 1.437592 -0.894309
v 0.828254 0.959201 -0.393372
v 0.369043 0.833086 -0.805339
v 0.188655 1.439379 -1.089100
v 0.537716 1.938820 -1.124010
v 0.941078 1.938820 -0.840249
v 1.051228 1.565495 -0.393373
v 1.283859 2.793524 0.148547
v 1.129789 2.793524 0.607677
v 1.128840 2.046874 0.610504
v 1.282911 2.046874 0.151375
v 1.283859 2.793524 0.075090
v 1.282911 2.046874 0.077917
v 1.103233 1.673548 -0.344553
v 0.993083 2.046873 -0.791430
v 1.061273 2.794911 -0.701187
v 1.172372 3.168236 -0.257138
v 0.250825 2.793525 1.228176
v -0.247757 2.793525 1.228176
v -0.250825 2.046871 1.228176
v 0.247756 2.046871 1.228176
v 0.322978 2.793525 1.205476
v 0.319910 2.046871 1.205476
v 0.679351 1.673546 0.909463
v 1.084247 2.046874 0.669934
v 1.085196 2.793524 0.667107
v 0.683369 3.166851 0.906635
v -1.128840 2.793524 0.610504
v -1.282911 2.793524 0.151375
v -1.283859 2.046873 0.148547
v -1.129789 2.046873 0.607677
v -1.084247 2.793524 0.669934
v -1.085196 2.046873 0.667107
v -0.683369 1.673546 0.906635
v -0.322978 2.046871 1.205476
v -0.319910 2.793525 1.205476
v -0.679351 3.166850 0.909463
v -0.713088 1.546046 -0.931038
v -1.016680 2.045486 -0.760617
v -0.948489 2.793524 -0.850860
v -0.545128 2.793524 -1.134620
v -0.421214 1.920758 -1.136369
v -0.993083 2.793524 -0.791430
v -1.061273 2.045486 -0.701187
v -1.172372 1.672161 -0.257138
v -1.283860 2.046873 0.075090
v -1.282911 2.793524 0.077917
v -1.103233 3.166849 -0.344553
v 0.438665 2.738949 -1.188376
v 0.730540 3.113661 -0.983045
v 1.016680 2.794911 -0.760617
v 0.948489 2.046873 -0.850860
v 0.545128 2.046873 -1.134620
v 0.366512 2.738949 -1.211076
v 0.472974 2.046873 -1.157320
v 0.123914 1.547432 -1.122410
v -0.349061 1.920758 -1.159069
v -0.472974 2.793524 -1.157320
v -0.106462 3.112275 -1.174417
v 1.140104 3.276690 -0.279838
v 1.029005 2.903365 -0.723887
v 0.742864 3.222115 -0.946315
v 0.562474 3.828409 -0.819413
v 0.668225 4.115950 -0.470085
v 0.959714 3.882982 -0.152939
v 0.393930 4.516923 -0.093510
v 0.685419 4.283955 0.223636
v 0.939772 3.950009 -0.093510
v 0.648282 4.182977 -0.410656
v -0.590504 3.948626 0.644701
v -0.193541 4.283959 0.641873
v -0.375463 4.516925 0.148547
v -0.772426 4.181592 0.151375
v -0.815722 3.948624 -0.344553
v -0.772426 4.181592 0.077917
v -0.375463 4.516925 0.075089
v -0.126175 4.516925 -0.257137
v -0.387381 4.181592 -0.664527
v -0.017620 3.894050 -0.909655
v -0.315228 4.181593 -0.687227
v -0.054023 4.516925 -0.279837
v 0.349336 4.516923 -0.152939
v 0.603688 4.182977 -0.470085
v 0.497938 3.895436 -0.819412
vt 0.313151 0.165755
vt 0.307179 0.169266
vt 0.311179 0.176193
vt 0.285515 0.117887
vt 0.275543 0.114470
vt 0.279543 0.121397
vt 0.354606 0.189690
vt 0.352634 0.200127
vt 0.360633 0.200127
vt 0.653994 0.212257
vt 0.653939 0.205329
vt 0.645995 0.212257
vt 0.835812 0.212257
vt 0.835757 0.205329
vt 0.827813 0.212257
vt 0.108539 0.212257
vt 0.108485 0.205329
vt 0.100540 0.212257
vt 0.465360 0.114470
vt 0.455388 0.117887
vt 0.465306 0.121397
vt 0.472175 0.212257
vt 0.472121 0.205329
vt 0.464176 0.212257
vt 0.940914 0.284059
vt 0.932969 0.290987
vt 0.944914 0.290987
vt 0.899459 0.260125
vt 0.891460 0.260125
vt 0.891514 0.267053
vt 0.172186 0.260125
vt 0.164187 0.260125
vt 0.164242 0.267053
vt 0.354005 0.260125
vt 0.346006 0.260125
vt 0.346060 0.267053
vt 0.549454 0.417586
vt 0.541455 0.417586
vt 0.545454 0.424513
vt 0.185818 0.417586
vt 0.177819 0.417586
vt 0.181818 0.424513
vt 0.654368 0.260125
vt 0.646369 0.260125
vt 0.654422 0.267053
vt 0.640363 0.054796
vt 0.636363 0.047869
vt 0.632364 0.054796
vt 0.458544 0.260125
vt 0.450545 0.260125
vt 0.454545 0.267053
vt 0.367635 0.417586
vt 0.359637 0.417586
vt 0.363636 0.424513
vt 0.290732 0.260125
vt 0.282733 0.260125
vt 0.290786 0.267053
vt 0.108914 0.260125
vt 0.100915 0.260125
vt 0.108968 0.267053
vt 0.717641 0.260125
vt 0.709642 0.260125
vt 0.709696 0.267053
vt 0.612967 0.338855
vt 0.600915 0.338855
vt 0.604914 0.345783
vt 0.549453 0.369717
vt 0.545454 0.362790
vt 0.541454 0.369717
vt 0.503999 0.338855
vt 0.496000 0.338855
vt 0.500000 0.345783
vt 0.354005 0.369717
vt 0.346060 0.362790
vt 0.346006 0.369717
vt 0.395460 0.284059
vt 0.387515 0.290987
vt 0.399459 0.290987
vt 0.172186 0.369717
vt 0.164242 0.362790
vt 0.164187 0.369717
vt 0.227647 0.284059
vt 0.219702 0.290987
vt 0.235700 0.290987
vt 0.906274 0.381522
vt 0.898329 0.374595
vt 0.900248 0.384939
vt 0.773101 0.284059
vt 0.765156 0.290987
vt 0.781154 0.290987
vt 0.774339 0.350660
vt 0.758341 0.350660
vt 0.764313 0.361004
vt 0.604914 0.284059
vt 0.600915 0.290987
vt 0.612967 0.290987
vt 0.500000 0.284059
vt 0.496000 0.290987
vt 0.503999 0.290987
vt 0.549453 0.260125
vt 0.541454 0.260125
vt 0.545454 0.267053
vt 0.836186 0.260125
vt 0.828187 0.260125
vt 0.836240 0.267053
vt 0.399459 0.338855
vt 0.387515 0.338855
vt 0.395460 0.345783
vt 0.527395 0.205329
vt 0.527449 0.212257
vt 0.535448 0.212257
vt 0.163759 0.205329
vt 0.163813 0.212257
vt 0.171812 0.212257
vt 0.235700 0.338855
vt 0.219702 0.338855
vt 0.227647 0.345783
vt 0.276727 0.212257
vt 0.272727 0.205329
vt 0.268728 0.212257
vt 0.891031 0.205329
vt 0.891085 0.212257
vt 0.899084 0.212257
vt 0.944914 0.338855
vt 0.932969 0.338855
vt 0.940914 0.345783
vt 0.598479 0.133527
vt 0.590534 0.126599
vt 0.582481 0.133527
vt 0.067030 0.181395
vt 0.055086 0.181395
vt 0.059085 0.188323
vt 0.708852 0.384939
vt 0.702880 0.374595
vt 0.702826 0.381522
vt 0.213267 0.126599
vt 0.205214 0.133527
vt 0.217266 0.133527
vt 0.709213 0.205329
vt 0.709267 0.212257
vt 0.717266 0.212257
vt 0.423663 0.169266
vt 0.409692 0.165755
vt 0.415719 0.176193
vt 0.279543 0.059674
vt 0.275543 0.066601
vt 0.285515 0.070018
vt 0.217266 0.181395
vt 0.205214 0.181395
vt 0.213267 0.188323
vt 0.067874 0.111378
vt 0.061901 0.121722
vt 0.073846 0.121722
vt 0.827024 0.087443
vt 0.820997 0.090860
vt 0.828942 0.097787
vt 0.598479 0.181395
vt 0.582481 0.181395
vt 0.590534 0.188323
vt 0.780297 0.181395
vt 0.764299 0.181395
vt 0.772352 0.188323
vt 0.115355 0.090860
vt 0.109329 0.087443
vt 0.115301 0.097787
vt 0.772352 0.126599
vt 0.764299 0.133527
vt 0.780297 0.133527
vt 0.653939 0.109592
vt 0.653994 0.102665
vt 0.645995 0.102665
vt 0.291543 0.100753
vt 0.329500 0.113759
vt 0.340601 0.117562
vt 0.340601 0.117562
vt 0.328999 0.097468
vt 0.309570 0.063815
vt 0.853860 0.283626
vt 0.864252 0.314921
vt 0.864252 0.314921
vt 0.902905 0.314921
vt 0.932625 0.314921
vt 0.926313 0.314921
vt 0.903338 0.280840
vt 0.114095 0.270211
vt 0.136853 0.298732
vt 0.136979 0.314921
vt 0.136979 0.314921
vt 0.166795 0.288924
vt 0.188545 0.269959
vt 0.176066 0.280840
vt 0.294143 0.270712
vt 0.236101 0.314921
vt 0.244555 0.314921
vt 0.299894 0.314921
vt 0.318798 0.314921
vt 0.318798 0.314921
vt 0.309900 0.307267
vt 0.432938 0.277496
vt 0.454545 0.314921
vt 0.454545 0.314921
vt 0.473346 0.282356
vt 0.659550 0.270211
vt 0.682291 0.296715
vt 0.682434 0.314921
vt 0.682434 0.314921
vt 0.704504 0.295677
vt 0.733999 0.269959
vt 0.721520 0.280840
vt 0.719357 0.378874
vt 0.736798 0.409085
vt 0.750307 0.432483
vt 0.750307 0.432483
vt 0.792516 0.388934
vt 0.569483 -0.019954
vt 0.610427 0.044923
vt 0.616701 0.034056
vt 0.656654 0.035145
vt 0.636363 0.000000
vt 0.636363 0.000000
vt 0.710434 0.086334
vt 0.660653 0.042072
vt 0.652539 0.078731
vt 0.652847 0.078731
vt 0.790419 0.123077
vt 0.825883 0.125080
vt 0.863020 0.157461
vt 0.863020 0.157461
vt 0.859657 0.139330
vt 0.851458 0.095123
vt 0.814734 0.115358
vt 0.735055 0.111136
vt 0.717480 0.126254
vt 0.681202 0.157461
vt 0.681202 0.157461
vt 0.705116 0.157461
vt 0.763898 0.157461
vt 0.606428 0.051850
vt 0.590909 0.078731
vt 0.598844 0.078731
vt 0.644848 0.078731
vt 0.235559 0.064378
vt 0.233893 0.080999
vt 0.281571 0.097336
vt 0.071967 0.108308
vt 0.120363 0.130815
vt 0.135747 0.157461
vt 0.135747 0.157461
vt 0.135890 0.139256
vt 0.136107 0.111492
vt 0.104796 0.103852
vt 0.540240 0.122316
vt 0.499383 0.157461
vt 0.499383 0.157461
vt 0.523298 0.157461
vt 0.582080 0.157461
vt 0.086413 0.246109
vt 0.088716 0.198469
vt 0.076237 0.209350
vt 0.023662 0.198444
vt 0.035747 0.219378
vt 0.045454 0.236191
vt 0.556488 0.426429
vt 0.607594 0.379299
vt 0.576269 0.368295
vt 0.570181 0.357750
vt 0.110766 0.375951
vt 0.136363 0.393651
vt 0.165642 0.393651
vt 0.165334 0.393651
vt 0.217587 0.357129
vt 0.184011 0.355930
vt 0.173641 0.393651
vt 0.209818 0.393651
vt 0.227273 0.393651
vt 0.365829 0.355930
vt 0.400482 0.386145
vt 0.409090 0.393651
vt 0.411730 0.389080
vt 0.431744 0.354414
vt 0.303598 0.053471
vt 0.076704 0.263072
vt 0.084757 0.269999
vt 0.802542 0.378590
vt 0.704292 0.406394
vt 0.710318 0.409810
vt 0.136545 0.370461
vt 0.136491 0.377388
vt 0.256891 0.368174
vt 0.264944 0.361246
vt 0.435744 0.347487
vt 0.440565 0.142681
vt 0.426594 0.139171
vt 0.019662 0.191517
vt 0.615647 0.372371
vt 0.926045 0.409810
vt 0.932071 0.406393
vt 0.205215 0.431856
vt 0.209215 0.424928
vt 0.518057 0.424929
vt 0.522057 0.431856
vt 0.548293 0.115389
vt 0.451729 0.066601
vt 0.441757 0.070018
vt 0.136161 0.104565
vt 0.239559 0.057450
vt 0.743108 0.104208
vt 0.849540 0.084778
vt 0.447729 0.059674
vn -0.5325 -0.2166 -0.8183
vn -0.6277 -0.6126 -0.4803
vn -0.2965 -0.1546 -0.9424
vn 0.9932 -0.1168 -0.0000
vn 0.2982 -0.1135 0.9477
vn -0.7945 -0.1155 0.5962
vn 0.2374 -0.5982 -0.7653
vn 0.2982 -0.1135 -0.9477
vn -0.5466 0.2954 0.7836
vn -0.2982 0.1135 0.9477
vn -0.9932 0.1168 0.0000
vn -0.2982 0.1135 -0.9477
vn 0.3433 0.9032 -0.2576
vn -0.4252 0.9051 0.0000
vn 0.9934 0.1143 0.0000
vn 0.4252 -0.9051 0.0000
vn 0.2993 0.0730 -0.9514
vn -0.0989 0.9441 -0.3145
vn -0.7947 0.1131 -0.5963
vn -0.7947 0.1131 0.5963
vn 0.7945 0.1155 0.5962
vn 0.8828 0.4301 -0.1888
vn 0.6337 0.6102 -0.4755
vn 0.4743 0.4566 -0.7527
vn -0.2405 0.5982 -0.7644
vn -0.1158 0.2286 -0.9666
vn -0.7929 0.6094 0.0000
vn -0.9055 0.3004 -0.2997
vn -0.2309 0.6040 0.7628
vn 0.5528 0.2955 0.7792
vn 0.5055 0.4867 0.7125
vn 0.9492 0.2397 -0.2040
vn 0.5844 0.1999 -0.7865
vn 0.7949 0.1117 -0.5964
vn 0.2982 0.1111 0.9480
vn -0.0714 0.4370 -0.8966
vn 0.7947 -0.1131 -0.5963
vn -0.9934 -0.1143 0.0000
vn -0.8803 0.3745 -0.2913
vn -0.7949 -0.1117 -0.5964
vn -0.2982 -0.1111 0.9480
vn -0.5318 0.3686 0.7624
vn 0.8803 -0.3745 -0.2913
vn -0.5528 -0.2955 0.7792
vn 0.6286 0.6052 0.4884
vn -0.8828 -0.4301 -0.1888
vn 0.7947 -0.1131 0.5963
vn 0.0984 -0.2389 -0.9661
vn -0.2359 -0.8793 -0.4137
vn -0.9492 -0.2397 -0.2040
vn -0.5055 -0.4867 0.7125
vn 0.2309 -0.6040 0.7628
vn 0.9055 -0.3004 -0.2997
vn 0.5466 -0.2954 0.7836
vn -0.6286 -0.6052 0.4884
vn 0.5318 -0.3686 0.7624
vn 0.7929 -0.6094 0.0000
vn -0.1927 -0.5370 -0.8213
vn -0.0005 0.3819 0.9242
vn -0.8938 0.3572 0.2711
vn -0.5731 0.3462 -0.7428
vn 0.1932 0.2950 -0.9358
vn 0.8346 0.3596 0.4174
vn 0.1868 0.8881 0.4199
vn -0.2115 -0.9342 0.2874
vn 0.5515 -0.6572 0.5137
vn 0.0005 -0.3819 0.9242
vn 0.8938 -0.3572 0.2711
vn 0.5201 -0.7552 -0.3991
vn -0.6720 -0.7104 -0.2091
vn -0.8346 -0.3596 0.4174
vn -0.8217 -0.3211 -0.4708
vn 0.6196 -0.3367 -0.7090
vn 0.9480 -0.0000 0.3181
vn 0.9544 -0.0288 -0.2972
vn 0.0000 0.0000 1.0000
vn 0.5754 0.0000 0.8179
vn -0.9480 0.0000 0.3181
vn -0.5754 -0.0000 0.8179
vn -0.5516 -0.0587 -0.8320
vn -0.9544 0.0288 -0.2972
vn 0.5879 0.0226 -0.8086
vn -0.0263 -0.0372 -0.9990
vn 0.7948 0.3415 -0.5017
vn 0.7121 0.6857 -0.1508
vn -0.5515 0.6572 0.5137
vn -0.5840 0.7411 -0.3312
vn 0.1592 0.7221 -0.6732
vn -0.1367 -0.8903 -0.4345
vn -0.5955 -0.4058 -0.6933
vn 0.9754 0.1868 -0.1166
vn 0.4672 0.2319 0.8532
vn -0.6455 0.2334 0.7273
vn -0.3985 -0.1821 -0.8989
vn -0.8792 0.2361 -0.4139
vn 0.0567 0.1685 -0.9841
vn 0.5322 0.3924 0.7502
vn -0.5412 0.3243 0.7759
vn -0.8963 0.3296 -0.2966
vn -0.0955 0.3290 -0.9395
vn 0.9272 0.3175 -0.1989
vn 0.2651 0.5649 0.7814
vn 0.5351 0.8359 0.1222
vn -0.6994 0.5113 0.4994
vn -0.6753 0.5108 -0.5321
vn 0.1516 0.4629 -0.8734
vn 0.5412 -0.3243 0.7759
vn 0.8963 -0.3296 -0.2966
vn 0.1063 -0.9453 -0.3083
vn -0.5322 -0.3924 0.7502
vn -0.9272 -0.3175 -0.1989
vn 0.1535 -0.3810 -0.9117
vn 0.9411 0.1211 0.3158
vn 0.8792 -0.2361 -0.4139
vn 0.0000 0.1177 0.9931
vn 0.6455 -0.2334 0.7273
vn -0.9411 0.1211 0.3158
vn -0.4672 -0.2319 0.8532
vn -0.5713 0.1189 -0.8121
vn -0.9754 -0.1868 -0.1166
vn 0.4459 0.1373 -0.8845
vn -0.0856 -0.2042 -0.9752
vn 0.5383 0.3231 -0.7784
vn 0.8351 0.5408 0.1004
vn -0.3393 0.7961 0.5011
vn -0.2454 0.9518 -0.1841
vn 0.0936 0.9501 -0.2974
vn 0.5173 0.7627 -0.3882
vn 0.7823 0.5270 -0.3319
vn 0.5655 0.5445 -0.6194
vn -0.1750 0.8123 -0.5564
vn -0.1431 0.5086 -0.8490
vn -0.6453 0.7639 0.0000
vn -0.8602 0.4788 -0.1759
vn -0.4032 0.4838 0.7768
vn 0.5418 0.5216 0.6591
vn 0.9037 0.1884 -0.3845
vn 0.7999 -0.0005 -0.6002
vn 0.7073 0.1533 -0.6901
vn -0.1994 0.1776 -0.9637
vn -0.2999 -0.0407 -0.9531
vn -0.9516 0.2378 -0.1946
vn -1.0000 0.0013 0.0000
vn -0.4628 0.2326 0.8554
vn -0.3001 0.0012 0.9539
vn 0.6490 0.2342 0.7238
vn 0.7999 0.0013 0.6002
vn 0.3000 -0.0279 -0.9535
vn 0.5713 -0.1189 -0.8121
vn 0.1773 -0.1914 -0.9654
vn -0.7999 0.0005 -0.6002
vn -0.6763 -0.1662 -0.7177
vn -0.9037 -0.1884 -0.3845
vn -0.7999 -0.0013 0.6002
vn -0.9411 -0.1211 0.3158
vn -0.6490 -0.2342 0.7238
vn 0.3001 -0.0012 0.9539
vn 0.0000 -0.1177 0.9931
vn 0.4628 -0.2326 0.8554
vn 1.0000 -0.0013 -0.0000
vn 0.9411 -0.1211 0.3158
vn 0.9516 -0.2378 -0.1946
vn 0.6441 -0.5235 -0.5577
vn 0.0679 -0.7912 -0.6077
vn -0.4399 -0.7715 -0.4596
vn -0.7804 -0.5285 -0.3342
vn -0.8351 -0.5408 0.1004
vn -0.4702 -0.8821 -0.0276
vn -0.5418 -0.5216 0.6591
vn 0.8602 -0.4788 -0.1759
vn 0.6994 -0.5113 0.4994
vn 0.6453 -0.7639 0.0000
vn -0.2651 -0.5649 0.7814
vn 0.3393 -0.7961 0.5011
vn 0.4032 -0.4838 0.7768
vn -0.0692 -0.8924 -0.4458
usemtl Material.001
s off
f 3/1/1 91/2/1 128/3/1
f 2/4/2 79/5/2 87/6/2
f 4/7/3 132/8/3 147/9/3
f 101/10/4 68/11/4 103/12/4
f 111/13/5 59/14/5 113/15/5
f 121/16/6 82/17/6 123/18/6
f 73/19/7 6/20/7 93/21/7
f 143/22/8 95/23/8 145/24/8
f 127/25/9 13/26/9 16/27/9
f 126/28/10 109/29/10 14/30/10
f 137/31/11 119/32/11 21/33/11
f 148/34/12 131/35/12 28/36/12
f 156/37/13 172/38/13 43/39/13
f 166/40/14 162/41/14 45/42/14
f 98/43/15 102/44/15 34/45/15
f 55/46/16 49/47/16 71/48/16
f 139/49/17 144/50/17 29/51/17
f 171/52/18 167/53/18 44/54/18
f 130/55/19 133/56/19 22/57/19
f 118/58/20 122/59/20 15/60/20
f 116/61/21 99/62/21 40/63/21
f 36/64/22 155/65/22 158/66/22
f 159/67/23 154/68/23 173/69/23
f 153/70/24 32/71/24 174/72/24
f 170/73/25 25/74/25 168/75/25
f 149/76/26 27/77/26 30/78/26
f 165/79/27 18/80/27 163/81/27
f 138/82/28 20/83/28 23/84/28
f 161/85/29 11/86/29 46/87/29
f 117/88/30 39/89/30 9/90/30
f 10/91/31 38/92/31 41/93/31
f 107/94/32 150/95/32 35/96/32
f 140/97/33 33/98/33 152/99/33
f 106/100/34 141/101/34 151/102/34
f 108/103/35 112/104/35 8/105/35
f 31/106/36 26/107/36 169/108/36
f 96/109/37 142/110/37 105/111/37
f 83/112/38 120/113/38 136/114/38
f 24/115/39 19/116/39 164/117/39
f 129/118/40 90/119/40 134/120/40
f 60/121/41 110/122/41 125/123/41
f 17/124/42 12/125/42 160/126/42
f 66/127/43 74/128/43 92/129/43
f 81/130/44 61/131/44 124/132/44
f 42/133/45 37/134/45 157/135/45
f 78/136/46 85/137/46 88/138/46
f 69/139/47 100/140/47 115/141/47
f 94/142/48 5/143/48 146/144/48
f 47/145/49 76/146/49 1/147/49
f 89/148/50 84/149/50 135/150/50
f 51/151/51 62/152/51 80/153/51
f 50/154/52 54/155/52 63/156/52
f 67/157/53 97/158/53 104/159/53
f 58/160/54 70/161/54 114/162/54
f 77/163/55 52/164/55 86/165/55
f 53/166/56 64/167/56 57/168/56
f 65/169/57 56/170/57 75/171/57
f 1/147/58 2/172/58 3/173/58 4/174/58 5/175/58 6/176/58 7/177/58
f 8/178/59 9/179/59 10/180/59 11/181/59 12/182/59 13/183/59 14/184/59
f 15/185/60 16/186/60 17/187/60 18/188/60 19/189/60 20/190/60 21/191/60
f 22/192/61 23/193/61 24/194/61 25/195/61 26/196/61 27/197/61 28/198/61
f 29/51/62 30/199/62 31/200/62 32/201/62 33/202/62
f 34/203/63 35/204/63 36/205/63 37/206/63 38/207/63 39/208/63 40/209/63
f 41/93/64 42/210/64 43/211/64 44/212/64 45/213/64 46/214/64
f 47/215/65 48/216/65 49/217/65 50/218/65 51/219/65 52/220/65
f 53/221/66 54/222/66 55/223/66 56/224/66
f 57/225/67 58/226/67 59/227/67 60/228/67 61/229/67 62/230/67 63/231/67
f 64/167/68 65/232/68 66/233/68 67/234/68 68/235/68 69/236/68 70/237/68
f 71/48/69 72/238/69 73/239/69 74/240/69 75/241/69
f 76/146/70 77/242/70 78/243/70 79/244/70
f 80/245/71 81/246/71 82/247/71 83/248/71 84/249/71 85/250/71 86/251/71
f 87/6/72 88/138/72 89/148/72 90/119/72 91/2/72
f 92/129/73 93/252/73 94/253/73 95/254/73 96/255/73 97/256/73
f 98/43/74 99/62/74 100/140/74 101/10/74
f 102/44/75 103/12/75 104/159/75 105/111/75 106/100/75 107/94/75
f 108/103/76 109/29/76 110/122/76 111/13/76
f 112/104/77 113/15/77 114/162/77 115/141/77 116/61/77 117/88/77
f 118/58/78 119/32/78 120/113/78 121/16/78
f 122/257/79 123/258/79 124/259/79 125/260/79 126/261/79 127/262/79
f 128/3/80 129/118/80 130/55/80 131/35/80 132/8/80
f 133/56/81 134/120/81 135/150/81 136/114/81 137/31/81 138/82/81
f 139/49/82 140/97/82 141/101/82 142/110/82 143/22/82
f 144/50/83 145/24/83 146/144/83 147/9/83 148/34/83 149/76/83
f 150/95/84 151/102/84 152/99/84 153/70/84 154/68/84 155/65/84
f 156/263/85 157/264/85 158/265/85 159/266/85
f 160/267/86 161/268/86 162/269/86 163/270/86
f 164/271/87 165/272/87 166/273/87 167/274/87 168/275/87
f 169/108/88 170/276/88 171/277/88 172/278/88 173/279/88 174/280/88
f 7/177/89 48/281/89 47/145/89 1/147/89
f 91/2/90 3/1/90 2/4/90 87/6/90
f 107/94/91 35/96/91 34/45/91 102/44/91
f 117/88/92 9/90/92 8/105/92 112/104/92
f 127/282/93 16/283/93 15/60/93 122/59/93
f 132/8/94 4/7/94 3/1/94 128/3/94
f 138/82/95 23/84/95 22/57/95 133/56/95
f 149/76/96 30/78/96 29/51/96 144/50/96
f 38/92/97 10/91/97 9/90/97 39/89/97
f 12/125/98 17/124/98 16/27/98 13/26/98
f 19/116/99 24/115/99 23/84/99 20/83/99
f 26/107/100 31/106/100 30/78/100 27/77/100
f 155/65/101 36/64/101 35/96/101 150/95/101
f 46/214/102 11/284/102 10/91/102 41/93/102
f 156/285/103 43/286/103 42/133/103 157/135/103
f 163/81/104 18/80/104 17/287/104 160/288/104
f 168/289/105 25/290/105 24/115/105 164/117/105
f 174/280/106 32/291/106 31/106/106 169/108/106
f 70/161/107 58/160/107 57/168/107 64/167/107
f 97/158/108 67/157/108 66/127/108 92/129/108
f 48/216/109 72/238/109 71/48/109 49/47/109
f 61/131/110 81/130/110 80/153/110 62/152/110
f 84/149/111 89/148/111 88/138/111 85/137/111
f 5/143/112 94/142/112 93/292/112 6/293/112
f 40/63/113 99/62/113 98/43/113 34/45/113
f 96/109/114 105/111/114 104/159/114 97/158/114
f 14/30/115 109/29/115 108/103/115 8/105/115
f 69/139/116 115/141/116 114/162/116 70/161/116
f 21/33/117 119/32/117 118/58/117 15/60/117
f 60/294/118 125/260/118 124/132/118 61/131/118
f 28/36/119 131/35/119 130/55/119 22/57/119
f 83/112/120 136/114/120 135/150/120 84/149/120
f 33/98/121 140/97/121 139/49/121 29/51/121
f 4/7/122 147/9/122 146/144/122 5/143/122
f 32/71/123 153/70/123 152/99/123 33/98/123
f 36/64/124 158/66/124 157/264/124 37/295/124
f 45/296/125 162/297/125 161/85/125 46/87/125
f 44/298/126 167/299/126 166/40/126 45/42/126
f 43/39/127 172/38/127 171/300/127 44/301/127
f 159/67/128 173/69/128 172/38/128 156/37/128
f 158/66/129 155/65/129 154/68/129 159/67/129
f 173/69/130 154/68/130 153/70/130 174/72/130
f 170/73/131 168/75/131 167/53/131 171/52/131
f 169/108/132 26/107/132 25/74/132 170/73/132
f 165/79/133 163/81/133 162/41/133 166/40/133
f 164/117/134 19/116/134 18/80/134 165/79/134
f 160/126/135 12/125/135 11/86/135 161/85/135
f 41/93/136 38/92/136 37/134/136 42/133/136
f 106/100/137 151/102/137 150/95/137 107/94/137
f 105/111/138 142/110/138 141/101/138 106/100/138
f 151/102/139 141/101/139 140/97/139 152/99/139
f 148/34/140 28/36/140 27/77/140 149/76/140
f 147/9/141 132/8/141 131/35/141 148/34/141
f 137/31/142 21/33/142 20/83/142 138/82/142
f 136/114/143 120/113/143 119/32/143 137/31/143
f 126/28/144 14/30/144 13/26/144 127/25/144
f 125/123/145 110/122/145 109/29/145 126/28/145
f 116/61/146 40/63/146 39/89/146 117/88/146
f 115/141/147 100/140/147 99/62/147 116/61/147
f 143/22/148 145/24/148 144/50/148 139/49/148
f 142/110/149 96/109/149 95/23/149 143/22/149
f 145/24/150 95/23/150 94/142/150 146/144/150
f 129/118/151 134/120/151 133/56/151 130/55/151
f 128/3/152 91/2/152 90/119/152 129/118/152
f 134/120/153 90/119/153 89/148/153 135/150/153
f 121/16/154 123/18/154 122/59/154 118/58/154
f 120/113/155 83/112/155 82/17/155 121/16/155
f 123/18/156 82/17/156 81/130/156 124/132/156
f 111/13/157 113/15/157 112/104/157 108/103/157
f 110/122/158 60/121/158 59/14/158 111/13/158
f 113/15/159 59/14/159 58/160/159 114/162/159
f 101/10/160 103/12/160 102/44/160 98/43/160
f 100/140/161 69/139/161 68/11/161 101/10/161
f 103/12/162 68/11/162 67/157/162 104/159/162
f 73/302/163 93/252/163 92/129/163 74/128/163
f 72/303/164 7/304/164 6/20/164 73/19/164
f 1/147/165 76/146/165 79/5/165 2/4/165
f 87/6/166 79/5/166 78/136/166 88/138/166
f 77/163/167 86/165/167 85/250/167 78/305/167
f 76/146/168 47/145/168 52/306/168 77/242/168
f 86/165/169 52/164/169 51/151/169 80/153/169
f 65/169/170 75/171/170 74/128/170 66/127/170
f 64/167/171 53/166/171 56/307/171 65/232/171
f 75/171/172 56/170/172 55/46/172 71/48/172
f 50/154/173 63/156/173 62/230/173 51/308/173
f 49/47/174 55/46/174 54/222/174 50/218/174
f 63/156/175 54/155/175 53/166/175 57/168/175
f 48/309/176 7/304/176 72/303/176
